<svg viewBox="0 0 518.82 152.98" xmlns="http://www.w3.org/2000/svg" xmlns:xlink="http://www.w3.org/1999/xlink" overflow="hidden"><defs><linearGradient x1="-1145.66" y1="1331.5" x2="-1146.64" y2="1241.21" gradientUnits="userSpaceOnUse" id="linear-gradient" gradientTransform="matrix(-1 1.22465e-16 -1.22465e-16 -1 -886.08 1375.48)"><stop offset="0" stop-color="#8D2900"/><stop offset="1" stop-color="#FFC05D"/></linearGradient></defs><g id="Layer_2"><g id="Layer_1-2"><path d="M480.24 146C327.33 128.86 180.08 128.36 41.38 153L18.81 83.17 64.81 75.46 18.81 71.15 0 28C170.3-9 343.2-9.61 518.82 28L492.39 113.4 463.26 117.29 487.69 124.09Z" fill="url(#linear-gradient)"/><path d="M0 27.95 55.91 47.95C55.91 47.95 292.71 59.85 296.91 59.11 301.11 58.37 408.26 59.11 408.26 59.11L500.82 35.8 518.82 27.98C348.87-10.47 175.74-8 0 27.95Z" opacity="0.3"/><path d="M18.81 83.17 32.42 86.78 97.85 89.23 85.51 74.03 64.85 75.45 18.81 83.17Z" opacity="0.3"/><path d="M487.7 124.07 477.36 125.67 460.45 127.64 405.71 117.18 423.1 106.56 435.8 117.09 463.27 117.27 487.7 124.07Z" opacity="0.3"/><path d="M469.85 138.09C332.85 119.33 193.25 122.59 51.69 142.34L32.42 86.78 85.51 74 30.07 66.84 17.85 34.16C113.741 16.4718 211.212 8.80387 308.69 11.28L311.98 19.78 318.56 11.28C379.84 15.0229 440.767 23.2144 500.86 35.79L488.17 71.42 455.28 70.77 487.7 76.77 475.48 111.25 434.6 116.81 477.36 125.63Z" fill="#F8A942"/><path d="M455.28 70.77 487.7 76.81 503.2 73.79 455.28 70.77Z" opacity="0.3"/><g opacity="0.3"><path d="M359 101.49C353.64 105.84 346.65 116.23 340.36 126.78 344.227 126.933 348.093 127.103 351.96 127.29 352.4 126.56 352.87 125.81 353.37 125.02 368.17 102.02 379.45 93.29 385.79 87.83 392.13 82.37 391.43 57.37 391.43 57.37 391.43 57.37 382.97 74.53 378.74 80.37 374.51 86.21 371.65 91.19 359 101.49Z" fill="#F69423"/><path d="M270.87 120.61C270.477 122.35 270.067 124.05 269.64 125.71 274.513 125.67 279.387 125.65 284.26 125.65 284.71 112.07 286.51 106.96 284.26 95.65 281.44 81.43 276.51 89.28 280.74 70.65 284.97 52.02 287.74 53.49 294.13 38.29 296.93 31.58 298.91 20.95 300.24 11.17 296.94 11.11 293.62 11.03 290.33 10.99 290.353 17.979 288.513 24.8479 285 30.89 275.84 46.58 270.2 47.56 267.38 62.27 264.56 76.98 265.27 76.49 267.38 88.74 269.49 100.99 277.91 89.23 270.87 120.61Z" fill="#F69423"/><path d="M203.46 127.71C211.13 127.32 217.92 126.98 226.38 126.71L226.38 126.71C223.56 102.49 223.68 85.33 226.45 87.3 229.22 89.27 225.73 106.42 234.18 117.21 236.396 120.12 238.452 123.148 240.34 126.28 244.153 126.173 247.967 126.08 251.78 126 255.45 116.91 258.35 111.1 253.95 97.11 249 81.39 249 83.84 245.49 68.15 241.98 52.46 242.67 51 246.9 42.66 249.42 37.66 254.53 22.79 257.55 10.95 253.417 10.9967 249.297 11.06 245.19 11.14 241.13 17.89 237.51 25.22 236.33 29.92 233.51 41.2 231.4 62.28 231.4 68.65 231.4 75.02 223.2 69.65 224.13 60.81 225.06 51.97 225.05 37.58 227.88 24.53 228.77 20.43 229.67 15.77 230.18 11.53 225.327 11.6767 220.487 11.8467 215.66 12.04 210.34 24.04 206.74 40.45 206.74 46.13 206.74 54.46 203.92 63.29 198.28 74.57 192.64 85.85 194.74 93.2 198.28 106.44 199.64 111.58 201.83 119.71 203.46 127.71Z" fill="#F69423"/><path d="M297.65 71.58C298.35 84.33 299.76 87.76 304.65 100.51 307.14 106.95 306.7 116.28 304.94 125.82 311.1 125.913 317.26 126.047 323.42 126.22 324.15 117.02 326.15 107.79 330.73 101.98 342.73 86.78 352.58 79.43 361.73 65.21 370.88 50.99 373.73 54.42 380.73 33.34 382.73 27.26 384.26 21.85 385.37 17.2 382.16 16.83 378.92 16.49 375.69 16.2 372.99 22.62 373.69 26.55 365.93 37.8 358.17 49.05 356.77 53.98 348.31 61.8 339.85 69.62 328.83 80.41 323.1 87.27 317.37 94.13 320.2 102.96 317.38 94.13 314.56 85.3 309.63 77.46 317.38 61.77 325.13 46.08 332.18 42.65 339.93 31.86 343.31 27.15 345.76 20.11 347.38 13.42 343.96 13.1333 340.523 12.86 337.07 12.6 336.33 14.12 335.63 15.6 334.99 17.15 330.06 28.92 326.67 35.29 313.21 47.06 299.75 58.83 296.94 58.84 297.65 71.58Z" fill="#F69423"/><path d="M416.71 131.93C424.857 132.71 432.997 133.567 441.13 134.5L441.13 134.5C446.4 129.5 451.01 125.27 454.48 120.97L434.59 116.87 459.14 113.53C460.472 110.516 461.154 107.255 461.14 103.96 461.14 91.7 452.66 89.78 461.14 80.43 463.061 78.1634 464.479 75.5151 465.3 72.66L455.3 70.79 465.84 71C468.65 60.84 468.54 47.36 475.27 37.29 476.536 35.3808 477.705 33.4083 478.77 31.38 473.49 30.38 468.14 29.38 462.77 28.46 463.29 43.67 468.57 49.55 455.01 60.33 441.45 71.11 439.32 86.8 439.32 94.16 439.32 101.52 426.63 101.02 424.52 112.79 423.68 117.35 420.5 124.62 416.71 131.93Z" fill="#F69423"/><path d="M173.61 85.8C172.2 97.08 178.54 100.02 173.61 116.2 172.03 121.4 170.45 125.83 169.16 129.83 174.7 129.43 180.237 129.057 185.77 128.71 185.822 127.627 185.996 126.554 186.29 125.51 189.11 116.19 188.64 116.19 185.7 101 182.76 85.81 175 74.52 173.61 85.8Z" fill="#F69423"/><path d="M392.24 129.81C394.76 121.378 400.202 114.121 407.59 109.34 425.21 97.57 433.67 88.46 428 76.59 422.33 64.72 418.13 68.64 422.36 50.99 424.59 41.7 427.59 31.07 429.94 23.07 426.607 22.57 423.243 22.08 419.85 21.6 418.797 26.9393 417.278 32.176 415.31 37.25 411.79 47.06 406.85 44.6 406.15 59.31 405.45 74.02 418.84 77.94 417.43 85.31 416.02 92.68 412.53 96.59 400.54 102 388.72 107.261 379.266 116.712 374 128.53 380.067 128.917 386.147 129.343 392.24 129.81Z" fill="#F69423"/><path d="M102.43 52.46C111.59 47.56 115.82 35.3 118.64 21.57 118.8 20.79 118.99 20.03 119.2 19.28 111.42 20.14 103.687 21.0467 96 22 101.57 31.58 90.34 52.6 89.06 59.77 87.63 67.66 93.26 57.36 102.43 52.46Z" fill="#F69423"/><path d="M97.41 76.59C94.51 86.01 97.49 93.65 100.31 109.82 101.56 116.99 100.18 127.05 98.93 136.37L108.87 135.27C109.984 124.699 110.421 114.067 110.18 103.44 109.48 88.24 128.5 75.49 132.73 100.5 134.78 112.64 135.51 122.5 136.44 132.5 141.273 132.053 146.107 131.63 150.94 131.23L151.06 128.43C151.76 112.25 141.19 85.29 146.83 65.68 152.47 46.07 157.4 54.91 180 31.87 189 22.7 190.24 17.19 188.43 13.4 173.063 14.3267 157.827 15.49 142.72 16.89 153.35 34.74 138.42 36.29 133.49 44.62 128.56 52.95 129.26 59.82 126.49 69.13 123.72 78.44 100.31 67.17 97.41 76.59Z" fill="#F69423"/><path d="M53.09 114.73C52.28 124.3 51.58 133.14 51.01 140.42L51.68 142.35 54.2 142C58.2 125.83 63.51 102.5 64.37 88.8 64.61 85.04 64.76 81.8 64.88 78.98L55.06 81.34C54.95 90.88 54.23 101.32 53.09 114.73Z" fill="#F69423"/><path d="M53.8 57.36C54.32 61.7 54.67 65.87 54.87 70.05L65.16 71.38C65.2551 62.3561 66.4097 53.3746 68.6 44.62 70.43 36.76 73.6 29.55 77.37 24.54 68.1967 25.8267 59.0733 27.1967 50 28.65 50.79 37.09 52.44 46 53.8 57.36Z" fill="#F69423"/></g><path d="M402 110.82 416.75 79.76 405.75 72.98 422.97 69.33 429.97 49.83C429.97 49.83 390.24 44.83 368.71 40.7 347.18 36.57 283.12 32.8 252.2 33.93 221.28 35.06 156.83 36 133.8 38 118.609 39.4534 103.561 42.1287 88.8 46L96.7 65.12 125.44 70.63 80.44 92.88 91.44 119.03C91.44 119.03 127.33 112.47 162.67 110.86 198.01 109.25 280.84 109.86 302.38 110.86 323.92 111.86 402 110.82 402 110.82Z" fill="#F8A942"/></g></g></svg>